<?xml version="1.0"?>
<svg width="1024" height="1024" xmlns="http://www.w3.org/2000/svg" xmlns:svg="http://www.w3.org/2000/svg" version="1.1">
 <g class="layer">
  <title>Layer 1</title>
  <path d="m433,0c195.03,0 390.06,0 591,0c0,218.46 0,436.92 0,662c-17.45,-8.72 -32.53,-18.82 -46.79,-31.98c-1.92,-1.76 -3.89,-3.43 -5.9,-5.08c-3.11,-2.65 -5.74,-5.58 -8.38,-8.7c-2.14,-2.48 -4.38,-4.85 -6.62,-7.24c-15.48,-17.03 -27.49,-36.78 -38.31,-57c-0.42,-0.78 -0.85,-1.57 -1.28,-2.37c-13.63,-25.34 -25.89,-51.43 -38.26,-77.4c-3.4,-7.13 -6.86,-14.22 -10.45,-21.25c-0.69,-1.35 -1.37,-2.7 -2.05,-4.05c-10.62,-21.16 -23.03,-41.78 -36.96,-60.93c-0.47,-0.65 -0.94,-1.31 -1.43,-1.98c-7.07,-9.74 -14.54,-19.05 -22.57,-28.02c-0.54,-0.6 -1.08,-1.2 -1.63,-1.82c-12.97,-14.39 -26.84,-27.6 -42.37,-39.18c-0.66,-0.5 -1.31,-0.99 -1.99,-1.51c-36.1,-27.26 -76.58,-45.06 -118.34,-61.64c-46.46,-18.44 -91.12,-36.74 -127.67,-71.85c-0.91,-0.87 -1.82,-1.74 -2.75,-2.63c-5.59,-5.45 -10.55,-11.15 -15.25,-17.37c-0.42,-0.55 -0.84,-1.1 -1.27,-1.66c-15.16,-19.88 -27.49,-42.12 -36.9,-65.29c-0.57,-1.42 -1.16,-2.83 -1.75,-4.24c-11.68,-27.9 -19.35,-58.73 -22.08,-88.81z" fill="#99f6e4" id="svg_1"/>
  <path fill="#F2C6B7" id="svg_3" transform="translate(0,0)"/>
  <path fill="#F2C5B6" id="svg_4" transform="translate(0,0)"/>
  <path fill="#4A4B4A" id="svg_5" transform="translate(0,0)"/>
  <path fill="#F2C1B2" id="svg_6" transform="translate(0,0)"/>
  <path fill="#EFC3B4" id="svg_7" transform="translate(0,0)"/>
  <path fill="#F1C3B5" id="svg_8" transform="translate(0,0)"/>
  <path fill="#F3C5B7" id="svg_9" transform="translate(0,0)"/>
  <path fill="#F2C6B7" id="svg_10" transform="translate(0,0)"/>
  <path fill="#F1C3B4" id="svg_11" transform="translate(0,0)"/>
  <path fill="#F2C3B5" id="svg_12" transform="translate(0,0)"/>
  <path fill="#F3C5B7" id="svg_13" transform="translate(0,0)"/>
  <path fill="#F1C4B5" id="svg_14" transform="translate(0,0)"/>
  <path fill="#F3C6B6" id="svg_15" transform="translate(0,0)"/>
  <path fill="#F0C4B4" id="svg_16" transform="translate(0,0)"/>
  <path fill="#EFC6B6" id="svg_17" transform="translate(0,0)"/>
  <path fill="#F1C4B6" id="svg_18" transform="translate(0,0)"/>
  <path fill="#F2C6B7" id="svg_19" transform="translate(0,0)"/>
  <path fill="#F2C7B6" id="svg_20" transform="translate(0,0)"/>
  <path fill="#F4C6B8" id="svg_21" transform="translate(0,0)"/>
  <path fill="#F5C7B6" id="svg_22" transform="translate(0,0)"/>
  <path fill="#F2C6B6" id="svg_23" transform="translate(0,0)"/>
  <path fill="#F3C7B8" id="svg_24" transform="translate(0,0)"/>
  <path fill="#F1C4B6" id="svg_25" transform="translate(0,0)"/>
  <path fill="#F2C4B7" id="svg_26" transform="translate(0,0)"/>
  <path fill="#F3C6B6" id="svg_27" transform="translate(0,0)"/>
  <path fill="#F5C7B8" id="svg_28" transform="translate(0,0)"/>
  <path fill="#F3C7B8" id="svg_29" transform="translate(0,0)"/>
  <path fill="#F4C6B6" id="svg_30" transform="translate(0,0)"/>
  <path fill="#F4C7B7" id="svg_31" transform="translate(0,0)"/>
  <path fill="#F3C7B7" id="svg_32" transform="translate(0,0)"/>
  <path fill="#F3C6B6" id="svg_33" transform="translate(0,0)"/>
  <path fill="#F4C7B7" id="svg_34" transform="translate(0,0)"/>
  <path fill="#F2C3B2" id="svg_35" transform="translate(0,0)"/>
  <path fill="#F5C6B6" id="svg_36" transform="translate(0,0)"/>
  <path fill="#F4C8B5" id="svg_37" transform="translate(0,0)"/>
  <path fill="#F4C6B6" id="svg_38" transform="translate(0,0)"/>
  <path fill="#F3C3B5" id="svg_39" transform="translate(0,0)"/>
  <path fill="#F1C6B8" id="svg_40" transform="translate(0,0)"/>
  <path fill="#F0C4B6" id="svg_41" transform="translate(0,0)"/>
  <path fill="#F2C2B5" id="svg_42" transform="translate(0,0)"/>
  <path fill="#F2C2B4" id="svg_43" transform="translate(0,0)"/>
  <path fill="#EFC4B4" id="svg_44" transform="translate(0,0)"/>
  <path fill="#F1C3B4" id="svg_45" transform="translate(0,0)"/>
  <path fill="#F0C4B5" id="svg_46" transform="translate(0,0)"/>
  <path fill="#F1C1B1" id="svg_47" transform="translate(0,0)"/>
  <path fill="#F0C2B3" id="svg_48" transform="translate(0,0)"/>
  <path fill="#F0C3B3" id="svg_49" transform="translate(0,0)"/>
  <path fill="#EFC2B6" id="svg_50" transform="translate(0,0)"/>
  <path fill="#F1C4B6" id="svg_51" transform="translate(0,0)"/>
  <path fill="#F0C3B4" id="svg_52" transform="translate(0,0)"/>
  <path fill="#F1C7B5" id="svg_53" transform="translate(0,0)"/>
  <path fill="#F3C6B6" id="svg_54" transform="translate(0,0)"/>
  <path fill="#F0C4B6" id="svg_55" transform="translate(0,0)"/>
  <path fill="#F0C2B4" id="svg_56" transform="translate(0,0)"/>
  <path fill="#F4C5B6" id="svg_57" transform="translate(0,0)"/>
  <path fill="#F3C7B7" id="svg_58" transform="translate(0,0)"/>
  <path fill="#F2C6B7" id="svg_59" transform="translate(0,0)"/>
 </g>
</svg>