<?xml version="1.0" encoding="UTF-8"?>
<svg version="1.1" xmlns="http://www.w3.org/2000/svg" width="1024" height="1024">
<path d="M0 0 C195.03 0 390.06 0 591 0 C591 218.46 591 436.92 591 662 C573.55219279 653.27609639 558.46975778 643.17626283 544.20703125 630.01953125 C542.28517848 628.26095093 540.32352511 626.59180225 538.3125 624.9375 C535.19667364 622.28542454 532.57217052 619.35641122 529.9296875 616.23828125 C527.79123705 613.75785188 525.55364997 611.38793455 523.3125 609 C507.82633754 591.9652213 495.81730295 572.22436839 485 552 C484.57734863 551.21641113 484.15469727 550.43282227 483.71923828 549.62548828 C470.09171366 524.28673027 457.83023262 498.19593081 445.45898438 472.22753906 C442.05984909 465.10023219 438.59793069 458.00927135 435.00683594 450.9765625 C434.32082347 449.62982221 433.63936067 448.28075694 432.96191406 446.9296875 C422.3364464 425.77491026 409.93498683 405.14644532 396 386 C395.52788086 385.34676758 395.05576172 384.69353516 394.56933594 384.02050781 C387.49898228 374.27840761 380.03114178 364.9660363 372 356 C371.46149414 355.39833008 370.92298828 354.79666016 370.36816406 354.17675781 C357.40471735 339.79058606 343.53353415 326.57806689 328 315 C327.34370605 314.50322754 326.68741211 314.00645508 326.01123047 313.49462891 C289.9083389 286.23291548 249.42646272 268.42537505 207.67041016 251.85449219 C161.20723043 233.41070157 116.55020454 215.11169207 80 180 C79.09121094 179.13246094 78.18242187 178.26492187 77.24609375 177.37109375 C71.66180081 171.92321102 66.70061254 166.22139895 62 160 C61.58105469 159.45214844 61.16210938 158.90429688 60.73046875 158.33984375 C45.56681184 138.45666249 33.23904164 116.21985761 23.83300781 93.04931641 C23.25769874 91.63397515 22.67311218 90.22238216 22.08105469 88.81396484 C10.40074928 60.91495776 2.73415146 30.07566607 0 0 Z " fill="#F9C8B8" transform="translate(433,0)"/>
<path d="M0 0 C0.33 0 0.66 0 1 0 C1.70204038 3.08020777 2.38405208 6.16451736 3.0625 9.25 C3.26166016 10.12269531 3.46082031 10.99539062 3.66601562 11.89453125 C3.94155273 13.16103516 3.94155273 13.16103516 4.22265625 14.453125 C4.39547119 15.22817383 4.56828613 16.00322266 4.74633789 16.80175781 C5.01751125 19.15175291 4.71554459 20.76197268 4 23 C4 22.01 4 21.02 4 20 C3.34 20 2.68 20 2 20 C0.2120463 13.1834265 -0.23668569 7.03482474 0 0 Z " fill="#FAD0C0" transform="translate(437,17)"/>
<path d="" fill="#F2C6B7" transform="translate(0,0)"/>
<path d="" fill="#F2C5B6" transform="translate(0,0)"/>
<path d="" fill="#4A4B4A" transform="translate(0,0)"/>
<path d="" fill="#F2C1B2" transform="translate(0,0)"/>
<path d="" fill="#EFC3B4" transform="translate(0,0)"/>
<path d="" fill="#F1C3B5" transform="translate(0,0)"/>
<path d="" fill="#F3C5B7" transform="translate(0,0)"/>
<path d="" fill="#F2C6B7" transform="translate(0,0)"/>
<path d="" fill="#F1C3B4" transform="translate(0,0)"/>
<path d="" fill="#F2C3B5" transform="translate(0,0)"/>
<path d="" fill="#F3C5B7" transform="translate(0,0)"/>
<path d="" fill="#F1C4B5" transform="translate(0,0)"/>
<path d="" fill="#F3C6B6" transform="translate(0,0)"/>
<path d="" fill="#F0C4B4" transform="translate(0,0)"/>
<path d="" fill="#EFC6B6" transform="translate(0,0)"/>
<path d="" fill="#F1C4B6" transform="translate(0,0)"/>
<path d="" fill="#F2C6B7" transform="translate(0,0)"/>
<path d="" fill="#F2C7B6" transform="translate(0,0)"/>
<path d="" fill="#F4C6B8" transform="translate(0,0)"/>
<path d="" fill="#F5C7B6" transform="translate(0,0)"/>
<path d="" fill="#F2C6B6" transform="translate(0,0)"/>
<path d="" fill="#F3C7B8" transform="translate(0,0)"/>
<path d="" fill="#F1C4B6" transform="translate(0,0)"/>
<path d="" fill="#F2C4B7" transform="translate(0,0)"/>
<path d="" fill="#F3C6B6" transform="translate(0,0)"/>
<path d="" fill="#F5C7B8" transform="translate(0,0)"/>
<path d="" fill="#F3C7B8" transform="translate(0,0)"/>
<path d="" fill="#F4C6B6" transform="translate(0,0)"/>
<path d="" fill="#F4C7B7" transform="translate(0,0)"/>
<path d="" fill="#F3C7B7" transform="translate(0,0)"/>
<path d="" fill="#F3C6B6" transform="translate(0,0)"/>
<path d="" fill="#F4C7B7" transform="translate(0,0)"/>
<path d="" fill="#F2C3B2" transform="translate(0,0)"/>
<path d="" fill="#F5C6B6" transform="translate(0,0)"/>
<path d="" fill="#F4C8B5" transform="translate(0,0)"/>
<path d="" fill="#F4C6B6" transform="translate(0,0)"/>
<path d="" fill="#F3C3B5" transform="translate(0,0)"/>
<path d="" fill="#F1C6B8" transform="translate(0,0)"/>
<path d="" fill="#F0C4B6" transform="translate(0,0)"/>
<path d="" fill="#F2C2B5" transform="translate(0,0)"/>
<path d="" fill="#F2C2B4" transform="translate(0,0)"/>
<path d="" fill="#EFC4B4" transform="translate(0,0)"/>
<path d="" fill="#F1C3B4" transform="translate(0,0)"/>
<path d="" fill="#F0C4B5" transform="translate(0,0)"/>
<path d="" fill="#F1C1B1" transform="translate(0,0)"/>
<path d="" fill="#F0C2B3" transform="translate(0,0)"/>
<path d="" fill="#F0C3B3" transform="translate(0,0)"/>
<path d="" fill="#EFC2B6" transform="translate(0,0)"/>
<path d="" fill="#F1C4B6" transform="translate(0,0)"/>
<path d="" fill="#F0C3B4" transform="translate(0,0)"/>
<path d="" fill="#F1C7B5" transform="translate(0,0)"/>
<path d="" fill="#F3C6B6" transform="translate(0,0)"/>
<path d="" fill="#F0C4B6" transform="translate(0,0)"/>
<path d="" fill="#F0C2B4" transform="translate(0,0)"/>
<path d="" fill="#F4C5B6" transform="translate(0,0)"/>
<path d="" fill="#F3C7B7" transform="translate(0,0)"/>
<path d="" fill="#F2C6B7" transform="translate(0,0)"/>
</svg>
